<svg width="32" height="32" viewBox="0 0 32 32" fill="none" xmlns="http://www.w3.org/2000/svg">
<path d="M18.6665 3.66699C21.2089 3.66699 23.0152 3.66911 24.3854 3.85334C25.7268 4.0337 26.4997 4.37191 27.064 4.93619C27.7134 5.58571 27.9962 6.08921 28.1528 6.98678C28.3293 7.99846 28.3332 9.44155 28.3332 12.0003C28.3332 12.5526 28.7809 13.0003 29.3332 13.0003C29.8854 13.0003 30.3332 12.5526 30.3332 12.0003V11.8719C30.3333 9.47299 30.3333 7.84794 30.123 6.64298C29.8892 5.30253 29.3908 4.43457 28.4782 3.52198C27.4804 2.52417 26.2152 2.08134 24.6518 1.87118C23.1329 1.66695 21.1921 1.66697 18.7417 1.66699H18.6665C18.1142 1.66699 17.6665 2.11471 17.6665 2.66699C17.6665 3.21927 18.1142 3.66699 18.6665 3.66699Z" fill="#33CCFF"/>
<path d="M2.66652 19C3.2188 19 3.66652 19.4477 3.66652 20C3.66652 22.5588 3.67036 24.0019 3.84689 25.0136C4.00351 25.9111 4.2862 26.4147 4.93572 27.0641C5.5 27.6284 6.27285 27.9667 7.61431 28.1469C8.98453 28.3312 10.7907 28.3333 13.3332 28.3333C13.8854 28.3333 14.3332 28.7811 14.3332 29.3333C14.3332 29.8856 13.8854 30.3333 13.3332 30.3333H13.258C10.8076 30.3333 8.86677 30.3333 7.34781 30.1292C5.78459 29.9189 4.51932 29.4761 3.52151 28.4784C2.60892 27.5657 2.11056 26.6977 1.87667 25.3573C1.6664 24.1524 1.66644 22.5273 1.66651 20.1285L1.66652 20C1.66652 19.4477 2.11423 19 2.66652 19Z" fill="#33CCFF"/>
<path d="M29.3332 19C29.8854 19 30.3332 19.4477 30.3332 20V20.1284C30.3333 22.5273 30.3333 24.1524 30.123 25.3573C29.8892 26.6977 29.3908 27.5657 28.4782 28.4784C27.4804 29.4761 26.2152 29.9189 24.6518 30.1292C23.1329 30.3333 21.1921 30.3333 18.7417 30.3333H18.6665C18.1142 30.3333 17.6665 29.8856 17.6665 29.3333C17.6665 28.7811 18.1142 28.3333 18.6665 28.3333C21.2089 28.3333 23.0152 28.3312 24.3854 28.1469C25.7268 27.9667 26.4997 27.6284 27.064 27.0641C27.7134 26.4147 27.9962 25.9111 28.1528 25.0136C28.3293 24.0019 28.3332 22.5588 28.3332 20C28.3332 19.4477 28.7809 19 29.3332 19Z" fill="#33CCFF"/>
<path d="M13.258 1.66699H13.3332C13.8854 1.66699 14.3332 2.11471 14.3332 2.66699C14.3332 3.21927 13.8854 3.66699 13.3332 3.66699C10.7908 3.66699 8.98453 3.66911 7.61431 3.85334C6.27285 4.0337 5.5 4.37191 4.93572 4.93619C4.2862 5.58571 4.00351 6.08921 3.84689 6.98678C3.67036 7.99846 3.66652 9.44155 3.66652 12.0003C3.66652 12.5526 3.2188 13.0003 2.66652 13.0003C2.11423 13.0003 1.66652 12.5526 1.66652 12.0003L1.66651 11.8719C1.66644 9.47303 1.6664 7.84793 1.87667 6.64298C2.11056 5.30253 2.60892 4.43457 3.52151 3.52198C4.51932 2.52417 5.78459 2.08134 7.34781 1.87118C8.86676 1.66695 10.8076 1.66697 13.258 1.66699Z" fill="#33CCFF"/>
<path d="M2.6665 15C2.11421 15 1.6665 15.4477 1.6665 16C1.6665 16.5523 2.11421 17 2.6665 17H29.3332C29.8854 17 30.3332 16.5523 30.3332 16C30.3332 15.4477 29.8854 15 29.3332 15H2.6665Z" fill="#33CCFF"/>
</svg>
