<svg width="32" height="32" viewBox="0 0 32 32" fill="none" xmlns="http://www.w3.org/2000/svg">
<path fill-rule="evenodd" clip-rule="evenodd" d="M16.0002 30.6663C24.1003 30.6663 30.6668 24.0998 30.6668 15.9997C30.6668 7.8995 24.1003 1.33301 16.0002 1.33301C7.89999 1.33301 1.3335 7.8995 1.3335 15.9997C1.3335 24.0998 7.89999 30.6663 16.0002 30.6663ZM16.0002 27.9906C9.37778 27.9906 4.00927 22.6221 4.00927 15.9997C4.00927 9.82797 8.67194 4.74529 14.6668 4.08207V15.4474C14.6668 16.1546 14.9478 16.8329 15.4479 17.333L23.4839 25.369C21.4327 27.0095 18.831 27.9906 16.0002 27.9906ZM25.3695 23.4834L19.6743 17.7882C19.5063 17.6202 19.6254 17.333 19.863 17.333H27.9178C27.662 19.645 26.749 21.7587 25.3695 23.4834ZM27.9178 14.6663H18.0002C17.632 14.6663 17.3335 14.3678 17.3335 13.9997V4.08207C22.8906 4.69686 27.303 9.10922 27.9178 14.6663Z" fill="#33CCFF"/>
</svg>
