<svg width="32" height="32" viewBox="0 0 32 32" fill="none" xmlns="http://www.w3.org/2000/svg">
<g clip-path="url(#clip0_377_4909)">
<path d="M24.2981 18.9891L20.6402 15.3374L26.4221 9.5555L27.085 10.2184C27.5478 10.6813 28.3308 10.5388 28.6014 9.94343L31.9159 2.6514C32.0776 2.29565 32.0018 1.8769 31.7254 1.60053L30.3994 0.274847C30.1231 -0.00146406 29.7044 -0.0774012 29.3486 0.0842856L22.0566 3.39884C21.4614 3.6694 21.3192 4.45277 21.7817 4.9152L22.4445 5.57814L16.6626 11.3601L13.011 7.70213C13.3841 5.6037 12.7115 3.42483 11.1913 1.90459C9.24197 -0.0447764 6.24761 -0.553524 3.74037 0.638596C3.46524 0.769408 3.2708 1.02572 3.21905 1.32591C3.16724 1.62609 3.26462 1.93272 3.47999 2.14815L5.62498 4.28164V5.6252H4.28761L2.15418 3.47396C1.93881 3.25859 1.63219 3.16121 1.33194 3.21302C1.03175 3.26477 0.775439 3.45921 0.644565 3.73433C-0.762492 6.69363 0.195191 10.1771 2.92162 12.0172C4.31605 12.9584 6.03473 13.3089 7.71172 13.0086L9.20059 14.5037C8.54441 14.5474 7.90072 14.8187 7.40029 15.3191C6.53154 16.1878 6.35185 17.4797 6.85023 18.5208L0.824439 24.5486C-0.274744 25.6477 -0.274869 27.4267 0.824439 28.526L3.47605 31.1777C4.57261 32.2742 6.35692 32.2743 7.45354 31.1777L13.4805 25.1487C14.5311 25.6492 15.8201 25.4608 16.6811 24.5998C17.1815 24.0994 17.4527 23.4557 17.4964 22.7995L18.9915 24.2884C18.6913 25.9652 19.0417 27.6842 19.9828 29.0784C21.8235 31.8059 25.3073 32.7622 28.2658 31.3555C28.5409 31.2247 28.7353 30.9684 28.7871 30.6682C28.8389 30.368 28.7415 30.0614 28.5261 29.8459L26.3749 27.7125V26.4376H27.7185L29.852 28.5201C30.0673 28.7355 30.374 28.8328 30.6742 28.781C30.9744 28.7293 31.2307 28.5349 31.3616 28.2597C32.5537 25.7524 32.0449 22.7581 30.0956 20.8087C28.5754 19.2885 26.3967 18.616 24.2981 18.9891ZM29.533 2.06003L29.9401 2.46709L27.4541 7.93607C27.3676 7.84957 24.2678 4.74971 24.064 4.54596L29.533 2.06003ZM8.67453 11.3198C8.43835 11.0836 8.09435 10.9908 7.77135 11.0765C6.47129 11.4212 5.05036 11.1919 3.97061 10.4631C2.42568 9.42044 1.67344 7.64232 1.92575 5.8972L3.23637 7.16313C3.41224 7.33894 3.65068 7.43769 3.8993 7.43769H6.56248C7.08023 7.43769 7.49998 7.01795 7.49998 6.5002V3.89333C7.49998 3.64471 7.40116 3.40621 7.22535 3.2304L5.90529 1.92184C7.33798 1.71747 8.81541 2.18028 9.86553 3.23046C11.0453 4.41027 11.5104 6.14589 11.0792 7.76001C10.9928 8.08338 11.0854 8.42819 11.322 8.66488L15.3368 12.6859L14.5794 13.4433C13.5404 12.9459 12.2483 13.1227 11.3778 13.9934L11.3598 14.0113L8.67453 11.3198ZM6.12773 29.8519C5.76217 30.2174 5.16742 30.2174 4.80186 29.8519L2.15025 27.2002C1.78387 26.8339 1.78381 26.2408 2.15025 25.8744L8.06322 19.9595C8.57603 20.4723 11.6044 23.5007 12.0406 23.9369L6.12773 29.8519ZM15.3552 23.274C14.9896 23.6396 14.3949 23.6396 14.0293 23.274L8.72603 17.9707C8.35978 17.6043 8.35972 17.0113 8.7261 16.6449C9.09253 16.2785 9.68547 16.2785 10.0519 16.6449L15.3552 21.9482C15.7208 22.3138 15.7208 22.9085 15.3552 23.274ZM16.681 19.2965L16.0181 19.9594L12.0406 15.9819L12.7036 15.319C13.07 14.9527 13.663 14.9527 14.0294 15.3191L16.681 17.9707C17.0465 18.3362 17.0465 18.931 16.681 19.2965ZM17.3439 15.982L16.0181 14.6562L23.7703 6.90395L25.0962 8.22975L17.3439 15.982ZM30.0784 26.0948L28.7698 24.7862C28.594 24.6104 28.3555 24.5001 28.1069 24.5001H25.8497C25.8493 24.5001 25.849 24.5001 25.8487 24.5001H25.4553C24.9374 24.5001 24.4999 24.9199 24.4999 25.4376V25.8424C24.4999 25.8427 24.4999 25.8431 24.4999 25.8435V28.1008C24.4999 28.3494 24.5987 28.5879 24.7745 28.7637L26.103 30.0744C24.3579 30.3267 22.5797 29.5744 21.537 28.0294C20.8082 26.9497 20.5789 25.5289 20.9237 24.2288C21.0093 23.9058 20.9166 23.5618 20.6804 23.3256L17.9889 20.6403L18.0068 20.6224C18.8711 19.7582 19.0536 18.4671 18.5557 17.4218L19.3142 16.6633L23.3354 20.6781C23.572 20.9147 23.9168 21.0073 24.2402 20.9209C25.8545 20.4897 27.59 20.9548 28.7698 22.1346C29.8199 23.1847 30.2827 24.6621 30.0784 26.0948Z" fill="#33CCFF"/>
<path d="M24.2981 18.9891L20.6402 15.3374L26.4221 9.5555L27.085 10.2184C27.5478 10.6813 28.3308 10.5388 28.6014 9.94343L31.9159 2.6514C32.0776 2.29565 32.0018 1.8769 31.7254 1.60053L30.3994 0.274847C30.1231 -0.00146406 29.7044 -0.0774012 29.3486 0.0842856L22.0566 3.39884C21.4614 3.6694 21.3192 4.45277 21.7817 4.9152L22.4445 5.57814L16.6626 11.3601L13.011 7.70213C13.3841 5.6037 12.7115 3.42483 11.1913 1.90459C9.24197 -0.0447764 6.24761 -0.553524 3.74037 0.638596C3.46524 0.769408 3.2708 1.02572 3.21905 1.32591C3.16724 1.62609 3.26462 1.93272 3.47999 2.14815L5.62498 4.28164V5.6252H4.28761L2.15418 3.47396C1.93881 3.25859 1.63219 3.16121 1.33194 3.21302C1.03175 3.26477 0.775439 3.45921 0.644565 3.73433C-0.762492 6.69363 0.195191 10.1771 2.92162 12.0172C4.31605 12.9584 6.03473 13.3089 7.71172 13.0086L9.20059 14.5037C8.54441 14.5474 7.90072 14.8187 7.40029 15.3191C6.53154 16.1878 6.35185 17.4797 6.85023 18.5208L0.824439 24.5486C-0.274744 25.6477 -0.274869 27.4267 0.824439 28.526L3.47605 31.1777C4.57261 32.2742 6.35692 32.2743 7.45354 31.1777L13.4805 25.1487C14.5311 25.6492 15.8201 25.4608 16.6811 24.5998C17.1815 24.0994 17.4527 23.4557 17.4964 22.7995L18.9915 24.2884C18.6913 25.9652 19.0417 27.6842 19.9828 29.0784C21.8235 31.8059 25.3073 32.7622 28.2658 31.3555C28.5409 31.2247 28.7353 30.9684 28.7871 30.6682C28.8389 30.368 28.7415 30.0614 28.5261 29.8459L26.3749 27.7125V26.4376H27.7185L29.852 28.5201C30.0673 28.7355 30.374 28.8328 30.6742 28.781C30.9744 28.7293 31.2307 28.5349 31.3616 28.2597C32.5537 25.7524 32.0449 22.7581 30.0956 20.8087C28.5754 19.2885 26.3967 18.616 24.2981 18.9891ZM29.533 2.06003L29.9401 2.46709L27.4541 7.93607C27.3676 7.84957 24.2678 4.74971 24.064 4.54596L29.533 2.06003ZM8.67453 11.3198C8.43835 11.0836 8.09435 10.9908 7.77135 11.0765C6.47129 11.4212 5.05036 11.1919 3.97061 10.4631C2.42568 9.42044 1.67344 7.64232 1.92575 5.8972L3.23637 7.16313C3.41224 7.33894 3.65068 7.43769 3.8993 7.43769H6.56248C7.08023 7.43769 7.49998 7.01795 7.49998 6.5002V3.89333C7.49998 3.64471 7.40116 3.40621 7.22535 3.2304L5.90529 1.92184C7.33798 1.71747 8.81541 2.18028 9.86553 3.23046C11.0453 4.41027 11.5104 6.14589 11.0792 7.76001C10.9928 8.08338 11.0854 8.42819 11.322 8.66488L15.3368 12.6859L14.5794 13.4433C13.5404 12.9459 12.2483 13.1227 11.3778 13.9934L11.3598 14.0113L8.67453 11.3198ZM6.12773 29.8519C5.76217 30.2174 5.16742 30.2174 4.80186 29.8519L2.15025 27.2002C1.78387 26.8339 1.78381 26.2408 2.15025 25.8744L8.06322 19.9595C8.57603 20.4723 11.6044 23.5007 12.0406 23.9369L6.12773 29.8519ZM15.3552 23.274C14.9896 23.6396 14.3949 23.6396 14.0293 23.274L8.72603 17.9707C8.35978 17.6043 8.35972 17.0113 8.7261 16.6449C9.09253 16.2785 9.68547 16.2785 10.0519 16.6449L15.3552 21.9482C15.7208 22.3138 15.7208 22.9085 15.3552 23.274ZM16.681 19.2965L16.0181 19.9594L12.0406 15.9819L12.7036 15.319C13.07 14.9527 13.663 14.9527 14.0294 15.3191L16.681 17.9707C17.0465 18.3362 17.0465 18.931 16.681 19.2965ZM17.3439 15.982L16.0181 14.6562L23.7703 6.90395L25.0962 8.22975L17.3439 15.982ZM30.0784 26.0948L28.7698 24.7862C28.594 24.6104 28.3555 24.5001 28.1069 24.5001H25.8497C25.8493 24.5001 25.849 24.5001 25.8487 24.5001H25.4553C24.9374 24.5001 24.4999 24.9199 24.4999 25.4376V25.8424C24.4999 25.8427 24.4999 25.8431 24.4999 25.8435V28.1008C24.4999 28.3494 24.5987 28.5879 24.7745 28.7637L26.103 30.0744C24.3579 30.3267 22.5797 29.5744 21.537 28.0294C20.8082 26.9497 20.5789 25.5289 20.9237 24.2288C21.0093 23.9058 20.9166 23.5618 20.6804 23.3256L17.9889 20.6403L18.0068 20.6224C18.8711 19.7582 19.0536 18.4671 18.5557 17.4218L19.3142 16.6633L23.3354 20.6781C23.572 20.9147 23.9168 21.0073 24.2402 20.9209C25.8545 20.4897 27.59 20.9548 28.7698 22.1346C29.8199 23.1847 30.2827 24.6621 30.0784 26.0948Z" fill="#33CCFF"/>
<path d="M8.72617 23.2739C8.36005 22.9077 7.76649 22.9077 7.40036 23.2739L4.80194 25.8742C4.43581 26.2403 4.43581 26.8338 4.80194 27.2C5.16819 27.5662 5.76181 27.566 6.12774 27.2L8.72617 24.5997C9.09229 24.2335 9.09229 23.64 8.72617 23.2739Z" fill="#33CCFF"/>
</g>
<defs>
<clipPath id="clip0_377_4909">
<rect width="32" height="32" fill="white"/>
</clipPath>
</defs>
</svg>
