<svg width="32" height="32" viewBox="0 0 32 32" fill="none" xmlns="http://www.w3.org/2000/svg">
<path d="M16 17C17.5822 17 19.129 16.5308 20.4446 15.6518C21.7602 14.7727 22.7855 13.5233 23.391 12.0615C23.9965 10.5997 24.155 8.99113 23.8463 7.43928C23.5376 5.88743 22.7757 4.46197 21.6569 3.34315C20.538 2.22433 19.1126 1.4624 17.5607 1.15372C16.0089 0.84504 14.4003 1.00347 12.9385 1.60897C11.4767 2.21447 10.2273 3.23985 9.34824 4.55544C8.46919 5.87103 8 7.41775 8 9C8 11.1217 8.84285 13.1566 10.3431 14.6569C11.8434 16.1571 13.8783 17 16 17ZM16 3C17.1867 3 18.3467 3.3519 19.3334 4.01119C20.3201 4.67047 21.0891 5.60755 21.5433 6.7039C21.9974 7.80026 22.1162 9.00666 21.8847 10.1705C21.6532 11.3344 21.0818 12.4035 20.2426 13.2426C19.4035 14.0818 18.3344 14.6532 17.1705 14.8847C16.0067 15.1162 14.8003 14.9974 13.7039 14.5433C12.6075 14.0892 11.6705 13.3201 11.0112 12.3334C10.3519 11.3467 10 10.1867 10 9C10 7.4087 10.6321 5.88258 11.7574 4.75736C12.8826 3.63214 14.4087 3 16 3Z" fill="#525266"/>
<path d="M9 31H23C24.3261 31 25.5979 30.4732 26.5355 29.5355C27.4732 28.5978 28 27.3261 28 26V22C28 21.8264 27.9548 21.6559 27.8689 21.5051C27.783 21.3543 27.6593 21.2285 27.51 21.14L22.51 18.14C22.2844 18.038 22.029 18.0234 21.7932 18.0989C21.5575 18.1744 21.3581 18.3346 21.2337 18.5486C21.1092 18.7626 21.0686 19.0152 21.1197 19.2574C21.1707 19.4997 21.3098 19.7144 21.51 19.86L26 22.57V26C26 26.7956 25.6839 27.5587 25.1213 28.1213C24.5587 28.6839 23.7956 29 23 29H9C8.20435 29 7.44129 28.6839 6.87868 28.1213C6.31607 27.5587 6 26.7956 6 26V22.57L10.51 19.86C10.6375 19.8024 10.7515 19.7186 10.8446 19.6142C10.9377 19.5097 11.0079 19.3869 11.0505 19.2536C11.0932 19.1204 11.1074 18.9797 11.0923 18.8406C11.0772 18.7015 11.033 18.5671 10.9627 18.4461C10.8923 18.3251 10.7974 18.2203 10.684 18.1383C10.5706 18.0563 10.4413 17.9991 10.3044 17.9702C10.1674 17.9414 10.026 17.9416 9.88917 17.9708C9.75233 18.0001 9.62316 18.0577 9.51 18.14L4.51 21.14C4.357 21.226 4.22932 21.3507 4.1398 21.5017C4.05028 21.6526 4.00206 21.8245 4 22V26C4 27.3261 4.52678 28.5978 5.46447 29.5355C6.40215 30.4732 7.67392 31 9 31Z" fill="#525266"/>
</svg>
