<svg width="95" height="95" viewBox="0 0 95 95" fill="none" xmlns="http://www.w3.org/2000/svg">
<g clip-path="url(#clip0_291_10265)">
<path d="M0 47.5C0 60.0978 5.00445 72.1796 13.9124 81.0876C22.8204 89.9956 34.9022 95 47.5 95C60.0978 95 72.1796 89.9956 81.0876 81.0876C89.9956 72.1796 95 60.0978 95 47.5C95 34.9022 89.9956 22.8204 81.0876 13.9124C72.1796 5.00445 60.0978 0 47.5 0C34.9022 0 22.8204 5.00445 13.9124 13.9124C5.00445 22.8204 0 34.9022 0 47.5Z" fill="#9DA6ED"/>
<path d="M18.0659 46.4233C18.0659 54.2297 21.167 61.7164 26.687 67.2363C32.2069 72.7563 39.6936 75.8573 47.5 75.8573C55.3064 75.8573 62.793 72.7563 68.313 67.2363C73.8329 61.7164 76.934 54.2297 76.934 46.4233C76.934 42.558 76.1727 38.7305 74.6935 35.1594C73.2143 31.5883 71.0462 28.3435 68.313 25.6103C65.5798 22.8771 62.335 20.709 58.7639 19.2298C55.1928 17.7506 51.3653 16.9893 47.5 16.9893C43.6346 16.9893 39.8071 17.7506 36.236 19.2298C32.6649 20.709 29.4202 22.8771 26.687 25.6103C23.9537 28.3435 21.7857 31.5883 20.3065 35.1594C18.8273 38.7305 18.0659 42.558 18.0659 46.4233Z" fill="#FFC8A9"/>
<path d="M31.8564 46.4237C31.8564 48.4781 32.2611 50.5123 33.0472 52.4102C33.8334 54.3082 34.9857 56.0327 36.4383 57.4853C37.8909 58.938 39.6155 60.0902 41.5134 60.8764C43.4114 61.6626 45.4456 62.0672 47.4999 62.0672C49.5542 62.0672 51.5884 61.6626 53.4864 60.8764C55.3843 60.0902 57.1089 58.938 58.5615 57.4853C60.0141 56.0327 61.1664 54.3082 61.9526 52.4102C62.7387 50.5123 63.1434 48.4781 63.1434 46.4237C63.1434 44.3694 62.7387 42.3352 61.9526 40.4372C61.1664 38.5393 60.0141 36.8148 58.5615 35.3621C57.1089 33.9095 55.3843 32.7572 53.4864 31.9711C51.5884 31.1849 49.5542 30.7803 47.4999 30.7803C45.4456 30.7803 43.4114 31.1849 41.5134 31.9711C39.6155 32.7572 37.8909 33.9095 36.4383 35.3621C34.9857 36.8148 33.8334 38.5393 33.0472 40.4372C32.2611 42.3352 31.8564 44.3694 31.8564 46.4237Z" fill="#FFD7A8"/>
<path d="M94.3025 55.5727C93.2877 53.9352 89.1066 47.4995 86.0729 47.4995C82.2499 47.4995 77.0943 57.8901 73.7151 57.8901C71.0119 57.8901 67.6329 51.9526 65.9916 51.9526C64.4469 51.9526 57.7852 60.8589 55.1786 60.8589H33.5528C28.9186 60.8589 22.6068 50.883 21.195 48.9839C19.9077 47.2522 16.5608 47.4995 16.5608 47.4995C16.5608 47.4995 7.8076 60.8589 2.65867 60.8589H1.91797C7.69089 80.5859 25.9066 94.9995 47.4998 94.9995C70.9796 94.9995 90.4674 77.9585 94.3025 55.5727Z" fill="#A17988"/>
<path d="M68.085 53.4553C66.797 53.1595 66.565 55.7572 65.127 55.9427C63.1068 56.2034 62.5294 60.3958 61.7872 61.7874C61.045 63.179 59.004 64.4779 57.0557 64.4779C55.1075 64.4779 52.937 67.5529 50.608 68.8846C50.608 68.8846 72.3634 75.5179 79.6925 75.5179C83.0091 75.5179 85.5594 74.4694 87.5283 73.0589C90.867 67.8374 93.2155 61.9212 94.303 55.5735C93.6354 54.4964 91.5968 51.3504 89.4168 49.3185C88.1335 49.1322 86.9548 49.0181 86.6505 49.1702C85.9083 49.5413 85.0733 49.9124 84.5167 51.5573C83.96 53.2022 81.1768 54.3656 79.6925 55.5716C78.2081 56.7777 78.3009 59.6536 76.9341 59.932C75.5674 60.2103 75.3321 59.0042 73.7156 57.8909C71.8991 57.8909 69.7796 55.2142 68.085 53.4553ZM32.7801 64.5706C30.6352 65.1805 29.5484 64.3387 28.8218 62.7152C27.4786 59.7145 20.5479 52.4246 19.0496 52.5101C16.8848 52.6338 16.3592 51.4278 15.2149 52.375C14.3488 53.0922 7.39709 58.1741 5.32305 58.8625C4.33724 59.1898 2.33147 59.4779 1.55273 59.5724C2.81965 64.4068 4.83599 68.9345 7.45888 73.0382C8.8258 73.2834 10.5033 73.4181 12.6175 73.3529C20.6576 73.1058 39.2432 69.2093 39.2432 69.2093C37.3987 67.2509 36.0426 63.6429 32.7801 64.5706Z" fill="#926E79"/>
<path d="M18.156 62.3438C16.189 62.3438 11.4024 68.2812 7.14061 68.2812H4.79492C12.5027 84.0971 28.7217 95 47.4998 95C67.4556 95 84.5213 82.6873 91.5509 65.2489C88.6777 64.6223 87.3943 59.375 85.8221 59.375C84.4452 59.375 76.5771 65.3125 74.8066 65.3125C72.0527 65.3125 71.5282 60.8594 68.5121 60.8594C65.496 60.8594 65.5615 68.2812 62.2176 68.2812C59.6604 68.2812 60.1194 66.7969 57.4969 66.7969C56.4521 66.7969 55.9231 68.2812 54.35 68.2812H44.9076C42.6782 68.2812 40.1212 65.3125 38.6131 65.3125C36.9903 65.3125 34.5477 68.2812 30.7449 68.2812C22.6145 68.2812 21.3032 62.3438 18.156 62.3438Z" fill="#86646A"/>
<path d="M47.4999 95.0004C67.0454 95.0004 83.827 83.1914 91.1166 66.3222C89.016 65.8695 87.5316 64.8026 86.6966 63.0863C86.1328 61.9274 84.6495 62.3692 84.3309 62.6892C82.3363 64.6931 78.8823 71.244 76.9339 71.244C75.9349 71.244 70.7331 64.2888 69.951 64.1994C68.3275 64.0138 67.4462 67.2609 63.828 68.5597C62.313 69.1036 61.6942 71.0524 59.9315 71.244C58.1688 71.4359 55.3856 70.6009 53.6229 71.9925C51.8602 73.3841 44.1675 77.8922 42.2435 77.4016C40.4955 76.9559 40.9293 74.3961 40.7274 73.3695C40.3563 71.4823 39.5214 68.9774 38.1298 69.8588C37.1109 70.5041 34.2951 69.8994 32.7179 70.1371C31.1408 70.3748 26.4093 75.2086 23.7499 74.2191C22.5672 73.779 20.2245 67.2611 19.1112 67.1683C17.9979 67.0756 17.5765 67.368 16.7919 67.725C14.857 68.6054 9.76762 70.4404 6.5918 71.6354C14.8588 85.6174 30.08 95.0004 47.4999 95.0004Z" fill="#745154"/>
<path d="M40.5361 46.4239C40.5361 48.2709 41.2698 50.0422 42.5758 51.3482C43.8818 52.6542 45.6531 53.3878 47.5001 53.3878C49.347 53.3878 51.1183 52.6542 52.4243 51.3482C53.7303 50.0422 54.464 48.2709 54.464 46.4239C54.464 44.577 53.7303 42.8056 52.4243 41.4997C51.1183 40.1937 49.347 39.46 47.5001 39.46C45.6531 39.46 43.8818 40.1937 42.5758 41.4997C41.2698 42.8056 40.5361 44.577 40.5361 46.4239Z" fill="white"/>
<path d="M28.3448 30.9365H40.0563C40.0563 26.8376 36.7333 23.5146 32.6344 23.5146C30.4817 23.5146 28.5596 24.4455 27.204 25.9095C26.8019 25.8097 26.3878 25.7412 25.9547 25.7412C24.1866 25.7412 22.6297 26.6285 21.6912 27.9778C20.7154 27.5026 19.6257 27.2256 18.4668 27.2256C15.9413 27.2256 13.7175 28.4927 12.377 30.4198C11.9537 30.2864 11.5121 30.1943 11.0449 30.1943C8.5855 30.1943 6.5918 32.188 6.5918 34.6475H30.3418C30.3418 33.0965 29.5471 31.734 28.3448 30.9365ZM82.6859 29.6876C80.5331 29.6876 78.6111 30.6185 77.2555 32.0825C76.8534 31.9826 76.4392 31.9142 76.0062 31.9142C74.0169 31.9142 72.3095 33.0447 71.4365 34.6866C70.8346 34.1127 70.024 33.7552 69.1267 33.7552C68.1538 33.7552 67.2853 34.176 66.6726 34.8375C66.491 34.7924 66.3037 34.7614 66.108 34.7614C64.8114 34.7614 63.7601 35.8125 63.7601 37.1093H90.1077C90.1077 33.0106 86.7848 29.6876 82.6859 29.6876Z" fill="white"/>
<path d="M50.5151 27.8679C50.5151 26.185 51.8795 24.8207 53.5624 24.8207C53.8164 24.8207 54.0593 24.861 54.2951 24.9194C55.0902 24.0607 56.2177 23.5146 57.4802 23.5146C59.8843 23.5146 61.8335 25.4636 61.8335 27.8679H50.5151Z" fill="white"/>
<path d="M47.5001 95C59.5434 95 70.5151 90.4944 78.8825 83.1051C67.9451 82.8895 60.1347 74.2188 55.866 74.2188C48.8638 74.2188 39.6919 84.362 35.7878 84.6094C31.8837 84.8567 26.167 78.5481 22.4025 80.1562C20.252 81.0748 18.1137 82.0216 15.9883 82.9966C24.3717 90.4524 35.3961 95 47.5001 95Z" fill="#674447"/>
<path d="M38.5474 10.6377C38.5474 10.933 38.6647 11.2161 38.8734 11.4249C39.0822 11.6337 39.3654 11.751 39.6606 11.751C39.9559 11.751 40.2391 11.6337 40.4479 11.4249C40.6566 11.2161 40.7739 10.933 40.7739 10.6377C40.7739 10.3424 40.6566 10.0593 40.4479 9.85049C40.2391 9.64171 39.9559 9.52441 39.6606 9.52441C39.3654 9.52441 39.0822 9.64171 38.8734 9.85049C38.6647 10.0593 38.5474 10.3424 38.5474 10.6377Z" fill="white"/>
<path d="M47.7412 7.29785C47.7412 7.59311 47.8585 7.87628 48.0673 8.08506C48.2761 8.29384 48.5592 8.41113 48.8545 8.41113C49.1498 8.41113 49.4329 8.29384 49.6417 8.08506C49.8505 7.87628 49.9678 7.59311 49.9678 7.29785C49.9678 7.00259 49.8505 6.71942 49.6417 6.51064C49.4329 6.30186 49.1498 6.18457 48.8545 6.18457C48.5592 6.18457 48.2761 6.30186 48.0673 6.51064C47.8585 6.71942 47.7412 7.00259 47.7412 7.29785Z" fill="white"/>
<path d="M57.2471 13.3594C57.2471 13.6546 57.3644 13.9378 57.5731 14.1466C57.7819 14.3554 58.0651 14.4727 58.3604 14.4727C58.6556 14.4727 58.9388 14.3554 59.1476 14.1466C59.3563 13.9378 59.4736 13.6546 59.4736 13.3594C59.4736 13.0641 59.3563 12.7809 59.1476 12.5722C58.9388 12.3634 58.6556 12.2461 58.3604 12.2461C58.0651 12.2461 57.7819 12.3634 57.5731 12.5722C57.3644 12.7809 57.2471 13.0641 57.2471 13.3594Z" fill="white"/>
<path d="M68.5288 20.0391C68.5288 20.3343 68.6461 20.6175 68.8549 20.8263C69.0637 21.0351 69.3468 21.1523 69.6421 21.1523C69.9374 21.1523 70.2205 21.0351 70.4293 20.8263C70.6381 20.6175 70.7554 20.3343 70.7554 20.0391C70.7554 19.7438 70.6381 19.4606 70.4293 19.2519C70.2205 19.0431 69.9374 18.9258 69.6421 18.9258C69.3468 18.9258 69.0637 19.0431 68.8549 19.2519C68.6461 19.4606 68.5288 19.7438 68.5288 20.0391Z" fill="white"/>
<path d="M47.5 18.9258C47.5 19.221 47.6173 19.5042 47.8261 19.713C48.0349 19.9218 48.318 20.0391 48.6133 20.0391C48.9085 20.0391 49.1917 19.9218 49.4005 19.713C49.6093 19.5042 49.7266 19.221 49.7266 18.9258C49.7266 18.6305 49.6093 18.3474 49.4005 18.1386C49.1917 17.9298 48.9085 17.8125 48.6133 17.8125C48.318 17.8125 48.0349 17.9298 47.8261 18.1386C47.6173 18.3474 47.5 18.6305 47.5 18.9258Z" fill="white"/>
<path d="M67.4155 12.2461C67.4155 12.5414 67.5328 12.8245 67.7416 13.0333C67.9504 13.2421 68.2335 13.3594 68.5288 13.3594C68.8241 13.3594 69.1072 13.2421 69.316 13.0333C69.5248 12.8245 69.6421 12.5414 69.6421 12.2461C69.6421 11.9508 69.5248 11.6677 69.316 11.4589C69.1072 11.2501 68.8241 11.1328 68.5288 11.1328C68.2335 11.1328 67.9504 11.2501 67.7416 11.4589C67.5328 11.6677 67.4155 11.9508 67.4155 12.2461Z" fill="white"/>
<path d="M28.8877 9.52441C28.8877 9.81967 29.005 10.1028 29.2138 10.3116C29.4225 10.5204 29.7057 10.6377 30.001 10.6377C30.2962 10.6377 30.5794 10.5204 30.7882 10.3116C30.997 10.1028 31.1143 9.81967 31.1143 9.52441C31.1143 9.22915 30.997 8.94599 30.7882 8.73721C30.5794 8.52842 30.2962 8.41113 30.001 8.41113C29.7057 8.41113 29.4225 8.52842 29.2138 8.73721C29.005 8.94599 28.8877 9.22915 28.8877 9.52441Z" fill="white"/>
<path d="M39.6606 21.1523C39.6606 21.4476 39.7779 21.7308 39.9867 21.9396C40.1955 22.1483 40.4787 22.2656 40.7739 22.2656C41.0692 22.2656 41.3524 22.1483 41.5611 21.9396C41.7699 21.7308 41.8872 21.4476 41.8872 21.1523C41.8872 20.8571 41.7699 20.5739 41.5611 20.3651C41.3524 20.1564 41.0692 20.0391 40.7739 20.0391C40.4787 20.0391 40.1955 20.1564 39.9867 20.3651C39.7779 20.5739 39.6606 20.8571 39.6606 21.1523Z" fill="white"/>
<path d="M20.3979 17.8125C20.3979 18.1078 20.5152 18.3909 20.724 18.5997C20.9328 18.8085 21.216 18.9258 21.5112 18.9258C21.8065 18.9258 22.0897 18.8085 22.2984 18.5997C22.5072 18.3909 22.6245 18.1078 22.6245 17.8125C22.6245 17.5172 22.5072 17.2341 22.2984 17.0253C22.0897 16.8165 21.8065 16.6992 21.5112 16.6992C21.216 16.6992 20.9328 16.8165 20.724 17.0253C20.5152 17.2341 20.3979 17.5172 20.3979 17.8125Z" fill="white"/>
</g>
<defs>
<clipPath id="clip0_291_10265">
<rect width="95" height="95" fill="white"/>
</clipPath>
</defs>
</svg>
