<svg width="67" height="77" viewBox="0 0 67 77" fill="none" xmlns="http://www.w3.org/2000/svg">
<g clip-path="url(#clip0_292_15123)">
<path d="M53.1751 6.96996V0H13.8097V6.96996H0.341797V17.3069C0.341797 24.7331 6.38348 30.7748 13.8097 30.7748H14.0457C15.2887 38.8461 21.4405 45.2812 29.3387 46.9804V58.1355H24.5085C23.0138 58.1355 21.8181 59.347 21.8181 60.8259V64.366H17.6959V77H49.3046V64.366H45.1824V60.8259C45.1824 59.3312 43.9709 58.1355 42.492 58.1355H37.6618V46.9804C45.5758 45.2812 51.7118 38.8304 52.9548 30.7748H53.1908C60.617 30.7748 66.6587 24.7331 66.6587 17.3069V6.96996H53.1751ZM13.8097 23.9622C10.1438 23.9622 7.15442 20.9728 7.15442 17.3069V13.7826H13.8097V23.9622ZM34.6409 25.8502L31.1796 29.2801L27.7496 25.8188L24.4456 22.4832L27.907 19.0533L31.211 22.3888L39.125 14.5221L42.5549 17.9834L34.6409 25.8502ZM59.8146 17.3069C59.8146 20.9728 56.841 23.9622 53.1751 23.9622V13.7826H59.8146V17.3069Z" fill="url(#paint0_linear_292_15123)"/>
</g>
<defs>
<linearGradient id="paint0_linear_292_15123" x1="0.341797" y1="38.5" x2="66.6587" y2="38.5" gradientUnits="userSpaceOnUse">
<stop stop-color="#5252D3"/>
<stop offset="1" stop-color="#00BDE3"/>
</linearGradient>
<clipPath id="clip0_292_15123">
<rect width="67" height="77" fill="white"/>
</clipPath>
</defs>
</svg>
