<svg width="190" height="77" viewBox="0 0 190 77" fill="none" xmlns="http://www.w3.org/2000/svg">
<g clip-path="url(#clip0_307_10691)">
<path d="M58.1746 6.96996V0H18.8092V6.96996H5.34131V17.3069C5.34131 24.7331 11.383 30.7748 18.8092 30.7748H19.0452C20.2882 38.8461 26.44 45.2812 34.3382 46.9804V58.1355H29.508C28.0134 58.1355 26.8176 59.347 26.8176 60.8259V64.366H22.6954V77H54.3041V64.366H50.1819V60.8259C50.1819 59.3312 48.9704 58.1355 47.4915 58.1355H42.6613V46.9804C50.5753 45.2812 56.7113 38.8304 57.9543 30.7748H58.1903C65.6165 30.7748 71.6582 24.7331 71.6582 17.3069V6.96996H58.1746ZM18.8092 23.9622C15.1433 23.9622 12.1539 20.9728 12.1539 17.3069V13.7826H18.8092V23.9622ZM39.6404 25.8502L36.1791 29.2801L32.7492 25.8188L29.4451 22.4832L32.9065 19.0533L36.2105 22.3888L44.1245 14.5221L47.5544 17.9834L39.6404 25.8502ZM64.8141 17.3069C64.8141 20.9728 61.8405 23.9622 58.1746 23.9622V13.7826H64.8141V17.3069Z" fill="url(#paint0_linear_307_10691)"/>
</g>
<path d="M100.281 49V31.7656H104.688V34.5156H104.969C105.198 33.6406 105.719 32.9167 106.531 32.3438C107.354 31.7708 108.307 31.4844 109.391 31.4844C110.172 31.4844 110.766 31.5573 111.172 31.7031V35.8438C110.693 35.6562 109.974 35.5625 109.016 35.5625C107.755 35.5625 106.74 35.9115 105.969 36.6094C105.208 37.3073 104.828 38.2552 104.828 39.4531V49H100.281Z" fill="url(#paint1_linear_307_10691)"/>
<path d="M160.734 34.875C159.682 34.875 158.812 35.2135 158.125 35.8906C157.448 36.5677 157.068 37.4635 156.984 38.5781H164.328C164.276 37.4323 163.927 36.5312 163.281 35.875C162.646 35.2083 161.797 34.875 160.734 34.875ZM164.422 44.0938H168.656C168.312 45.7292 167.438 47.0208 166.031 47.9688C164.635 48.9062 162.885 49.375 160.781 49.375C158.156 49.375 156.109 48.5938 154.641 47.0312C153.172 45.4583 152.438 43.2708 152.438 40.4688C152.438 37.6667 153.177 35.4531 154.656 33.8281C156.135 32.2031 158.156 31.3906 160.719 31.3906C163.26 31.3906 165.24 32.1562 166.656 33.6875C168.083 35.2188 168.797 37.3542 168.797 40.0938V41.4844H156.969V41.7188C157 43 157.365 44.0156 158.062 44.7656C158.771 45.5052 159.719 45.875 160.906 45.875C161.802 45.875 162.552 45.724 163.156 45.4219C163.76 45.1094 164.182 44.6667 164.422 44.0938Z" fill="#525266"/>
<path d="M93.5364 58.6019L85.6273 56.8062L92.6731 25.7723L81.3333 23.1978L82.8673 16.441L113.456 23.3857L111.922 30.1425L100.582 27.5679L93.5364 58.6019Z" fill="#525266"/>
<path d="M174.453 30.2656V37.2031H178.594C179.781 37.2031 180.703 36.901 181.359 36.2969C182.026 35.6823 182.359 34.8333 182.359 33.75C182.359 32.6771 182.016 31.8281 181.328 31.2031C180.641 30.5781 179.714 30.2656 178.547 30.2656H174.453ZM174.453 40.8281V49H169.734V26.4531H179.203C181.682 26.4531 183.635 27.099 185.062 28.3906C186.49 29.6823 187.203 31.4479 187.203 33.6875C187.203 35.1458 186.839 36.4531 186.109 37.6094C185.391 38.7552 184.391 39.5833 183.109 40.0938L187.859 49H182.516L178.312 40.8281H174.453Z" fill="url(#paint2_linear_307_10691)"/>
<path d="M139.053 38.201L134.936 38.2159C134.781 37.3991 134.416 36.7596 133.839 36.2975C133.272 35.8253 132.53 35.5908 131.611 35.5942C130.42 35.5985 129.504 36.0357 128.861 36.9059C128.228 37.776 127.915 39.0285 127.921 40.6632C127.927 42.3182 128.25 43.5885 128.889 44.4742C129.538 45.3498 130.457 45.7854 131.648 45.7811C132.556 45.7778 133.292 45.5582 133.856 45.1222C134.429 44.6862 134.795 44.0592 134.954 43.2413L139.071 43.2264C138.896 45.114 138.155 46.6153 136.847 47.7301C135.539 48.8347 133.811 49.391 131.661 49.3988C129.058 49.4082 127.042 48.6587 125.614 47.1502C124.195 45.6315 123.481 43.4746 123.471 40.6794C123.461 37.9043 124.159 35.7625 125.567 34.2538C126.974 32.7451 128.985 31.986 131.598 31.9765C133.778 31.9686 135.515 32.5224 136.811 33.6378C138.117 34.7532 138.864 36.2743 139.053 38.201Z" fill="url(#paint3_linear_307_10691)"/>
<path d="M144.11 38.8728L149.672 32.3287L154.682 32.3105L148.351 39.4932L155.182 49.0046L149.96 49.0235L145.061 42.26L143.855 43.5056L143.875 49.0456L139.47 49.0616L139.386 25.9933L143.791 25.9774L143.838 38.8738L144.11 38.8728Z" fill="url(#paint4_linear_307_10691)"/>
<path d="M117.932 45.7472C118.974 45.8895 119.887 45.7145 120.669 45.2221C121.451 44.7297 121.901 44.05 122.02 43.183L122.191 41.9291L118.709 41.6742C116.771 41.5462 115.717 42.1014 115.548 43.3399C115.462 43.9695 115.636 44.5032 116.071 44.941C116.517 45.3699 117.137 45.6386 117.932 45.7472ZM115.983 48.9345C114.331 48.709 113.048 48.0554 112.134 46.9738C111.231 45.8936 110.884 44.5795 111.096 43.0314C111.306 41.4936 112.039 40.3636 113.294 39.6414C114.56 38.9103 116.265 38.628 118.408 38.7946L122.576 39.1115L122.766 37.7182C122.863 37.006 122.69 36.4252 122.247 35.9757C121.805 35.5158 121.12 35.2224 120.191 35.0955C118.519 34.8672 117.42 35.2532 116.895 36.2538L112.746 35.6871C113.106 34.1277 114.02 32.9804 115.487 32.2451C116.966 31.5009 118.778 31.2755 120.925 31.5687C123.175 31.876 124.845 32.6193 125.935 33.7985C127.035 34.9791 127.46 36.488 127.209 38.3251L125.617 49.9825L121.251 49.3861L121.556 47.1568L121.277 47.1188C120.726 47.8425 119.982 48.3664 119.044 48.6903C118.107 49.004 117.087 49.0854 115.983 48.9345Z" fill="#525266"/>
<defs>
<linearGradient id="paint0_linear_307_10691" x1="5.34131" y1="38.5" x2="71.6582" y2="38.5" gradientUnits="userSpaceOnUse">
<stop stop-color="#5252D3"/>
<stop offset="1" stop-color="#00BDE3"/>
</linearGradient>
<linearGradient id="paint1_linear_307_10691" x1="98" y1="38" x2="112" y2="38" gradientUnits="userSpaceOnUse">
<stop stop-color="#5252D3"/>
<stop offset="1" stop-color="#00BDE3"/>
</linearGradient>
<linearGradient id="paint2_linear_307_10691" x1="167" y1="38" x2="190" y2="38" gradientUnits="userSpaceOnUse">
<stop stop-color="#5252D3"/>
<stop offset="1" stop-color="#00BDE3"/>
</linearGradient>
<linearGradient id="paint3_linear_307_10691" x1="122.067" y1="37.5702" x2="141.067" y2="37.5013" gradientUnits="userSpaceOnUse">
<stop stop-color="#5252D3"/>
<stop offset="1" stop-color="#00BDE3"/>
</linearGradient>
<linearGradient id="paint4_linear_307_10691" x1="137.067" y1="37.5702" x2="156.067" y2="37.5013" gradientUnits="userSpaceOnUse">
<stop stop-color="#5252D3"/>
<stop offset="1" stop-color="#00BDE3"/>
</linearGradient>
<clipPath id="clip0_307_10691">
<rect width="77" height="77" fill="white"/>
</clipPath>
</defs>
</svg>
