<svg width="32" height="32" viewBox="0 0 32 32" fill="none" xmlns="http://www.w3.org/2000/svg">
<g clip-path="url(#clip0_377_4907)">
<path d="M31.9999 12.5601C32.0005 12.1256 31.8862 11.6988 31.6684 11.3229C31.4506 10.947 31.1371 10.6355 30.7599 10.4201L17.2799 2.42007C16.8914 2.19341 16.4497 2.07397 15.9999 2.07397C15.5501 2.07397 15.1084 2.19341 14.7199 2.42007L1.21987 10.4201C0.846814 10.6414 0.537775 10.9561 0.323126 11.333C0.108477 11.71 -0.00439453 12.1363 -0.00439453 12.5701C-0.00439453 13.0039 0.108477 13.4302 0.323126 13.8071C0.537775 14.1841 0.846814 14.4987 1.21987 14.7201L5.05987 16.9601V22.5801C5.06218 23.0193 5.17746 23.4505 5.39462 23.8323C5.61179 24.2141 5.92353 24.5336 6.29987 24.7601L14.7999 29.6601C15.1794 29.8702 15.6061 29.9804 16.0399 29.9804C16.4737 29.9804 16.9004 29.8702 17.2799 29.6601L25.7799 24.7601C26.1562 24.5336 26.468 24.2141 26.6851 23.8323C26.9023 23.4505 27.0176 23.0193 27.0199 22.5801V16.9001L29.4999 15.4401V20.8801H31.9999V12.5601ZM24.5399 22.5601L15.9999 27.4801L7.55987 22.5801V18.4401L14.7199 22.7001C15.1097 22.9228 15.5509 23.04 15.9999 23.04C16.4488 23.04 16.89 22.9228 17.2799 22.7001L24.5199 18.3801L24.5399 22.5601ZM15.9999 20.5401L2.49987 12.5401L15.9999 4.52007L29.4999 12.5201L15.9999 20.5401Z" fill="#FFFFFF"/>
</g>
<defs>
<clipPath id="clip0_377_4907">
<rect width="32" height="32" fill="white"/>
</clipPath>
</defs>
</svg>
