<svg width="28" height="28" viewBox="0 0 28 28" fill="none" xmlns="http://www.w3.org/2000/svg">
<path d="M0 5C0 2.23858 2.23858 0 5 0H23C25.7614 0 28 2.23858 28 5V23C28 25.7614 25.7614 28 23 28H5C2.23858 28 0 25.7614 0 23V5Z" fill="#FF0B33"/>
<g clip-path="url(#clip0_555_6543)">
<path d="M20.236 9.48387C20.3465 9.48387 20.436 9.39436 20.436 9.28387V7.65247C20.436 7.54198 20.3465 7.45247 20.236 7.45247H7.80078C7.77452 7.45246 7.74851 7.45763 7.72424 7.46768C7.69997 7.47773 7.67792 7.49246 7.65935 7.51103C7.64078 7.52961 7.62604 7.55166 7.61599 7.57592C7.60595 7.60019 7.60078 7.6262 7.60078 7.65247V9.28387C7.60078 9.39436 7.69029 9.48387 7.80078 9.48387H20.236ZM20.236 10.2839H7.80078C7.24848 10.2839 6.80078 9.83618 6.80078 9.28387V7.65247C6.80078 7.10016 7.24848 6.65247 7.80078 6.65247H20.236C20.7883 6.65247 21.236 7.10016 21.236 7.65247V9.28387C21.236 9.83618 20.7883 10.2839 20.236 10.2839Z" fill="white"/>
<path d="M19.7579 9.95098L18.6203 22.9676C18.6096 23.0896 18.4891 23.2 18.3665 23.2H9.66834C9.54576 23.2 9.42524 23.0896 9.41463 22.9677L8.27701 9.95098C8.25777 9.7309 8.06379 9.56809 7.84371 9.58732C7.62363 9.60656 7.46082 9.80055 7.48006 10.0206L8.61766 23.0372C8.66424 23.5724 9.1309 24 9.66834 24H18.3665C18.904 24 19.3706 23.5724 19.4172 23.0371L20.5548 10.0206C20.5741 9.80055 20.4113 9.60654 20.1912 9.58732C19.9711 9.56811 19.7771 9.7309 19.7579 9.95098ZM12.2424 7.02898V5.00199C12.2424 4.89016 12.3323 4.8 12.4424 4.8H15.5924C15.7026 4.8 15.7924 4.89018 15.7924 5.00199V7.02898C15.7924 7.2499 15.9715 7.42898 16.1924 7.42898C16.4134 7.42898 16.5924 7.2499 16.5924 7.02898V5.00199C16.5924 4.44895 16.145 4 15.5924 4H12.4424C11.8899 4 11.4424 4.44896 11.4424 5.00199V7.02898C11.4424 7.2499 11.6215 7.42898 11.8424 7.42898C12.0634 7.42898 12.2424 7.2499 12.2424 7.02898Z" fill="white"/>
<path d="M13.6877 12.0238V21.027C13.6877 21.2479 13.8668 21.427 14.0877 21.427C14.3087 21.427 14.4877 21.2479 14.4877 21.027V12.0238C14.4877 11.8029 14.3087 11.6238 14.0877 11.6238C13.8668 11.6238 13.6877 11.8029 13.6877 12.0238ZM9.92925 12.0583L10.7092 21.0615C10.7283 21.2816 10.9222 21.4446 11.1423 21.4255C11.3624 21.4064 11.5253 21.2126 11.5063 20.9925L10.7263 11.9893C10.7072 11.7692 10.5133 11.6062 10.2932 11.6253C10.0732 11.6444 9.91019 11.8382 9.92925 12.0583ZM17.3092 11.9893L16.5292 20.9925C16.5102 21.2126 16.6731 21.4064 16.8932 21.4255C17.1133 21.4446 17.3072 21.2816 17.3263 21.0615L18.1063 12.0583C18.1253 11.8382 17.9624 11.6444 17.7423 11.6253C17.5222 11.6062 17.3283 11.7692 17.3092 11.9893Z" fill="white"/>
</g>
<defs>
<clipPath id="clip0_555_6543">
<rect width="20" height="20" fill="white" transform="translate(4 4)"/>
</clipPath>
</defs>
</svg>
