<svg width="17" height="15" viewBox="0 0 17 15" fill="none" xmlns="http://www.w3.org/2000/svg">
<path d="M6.90416 0.899902C3.84089 0.899902 1.36328 3.18037 1.36328 5.9999C1.36328 8.81943 3.84089 11.0999 6.90416 11.0999C7.99783 11.0999 9.01001 10.8046 9.86813 10.303L13.871 13.9874L15.2562 12.7124L11.3043 9.08428C12.0147 8.22646 12.445 7.16357 12.445 5.9999C12.445 3.18037 9.96744 0.899902 6.90416 0.899902ZM6.90416 2.0999C9.25064 2.0999 11.1413 3.84014 11.1413 5.9999C11.1413 8.15967 9.25064 9.8999 6.90416 9.8999C4.55769 9.8999 2.66702 8.15967 2.66702 5.9999C2.66702 3.84014 4.55769 2.0999 6.90416 2.0999Z" fill="#525266"/>
</svg>
