<svg width="159" height="159" viewBox="0 0 159 159" fill="none" xmlns="http://www.w3.org/2000/svg">
<g clip-path="url(#clip0_289_7925)">
<path fill-rule="evenodd" clip-rule="evenodd" d="M84.1521 14.5434L130.527 31.934C135.699 33.8733 139.125 38.8172 139.125 44.3404V79.8684C139.125 102.452 126.365 123.099 106.165 133.198L83.9441 144.309C81.1463 145.708 77.8537 145.708 75.0559 144.309L52.8349 133.198C32.6349 123.099 19.875 102.452 19.875 79.8684V44.3404C19.875 38.8172 23.3011 33.8733 28.4726 31.934L74.8479 14.5434C77.8471 13.4185 81.1529 13.4185 84.1521 14.5434ZM79.5 92.7501C75.841 92.7501 72.875 95.7161 72.875 99.3751C72.875 103.034 75.841 106 79.5 106C83.159 106 86.125 103.034 86.125 99.3751C86.125 95.7161 83.159 92.7501 79.5 92.7501ZM79.5 46.3751C76.1024 46.3751 73.3022 48.9326 72.9196 52.2275L72.875 53.0001V79.5001C72.875 83.1591 75.841 86.1251 79.5 86.1251C82.8976 86.1251 85.6978 83.5677 86.0804 80.2727L86.125 79.5001V53.0001C86.125 49.3412 83.159 46.3751 79.5 46.3751Z" fill="url(#paint0_linear_289_7925)"/>
</g>
<defs>
<linearGradient id="paint0_linear_289_7925" x1="19.875" y1="79.5289" x2="139.125" y2="79.5289" gradientUnits="userSpaceOnUse">
<stop stop-color="#5252D3"/>
<stop offset="1" stop-color="#00BDE3"/>
</linearGradient>
<clipPath id="clip0_289_7925">
<rect width="159" height="159" fill="white"/>
</clipPath>
</defs>
</svg>
